<svg width="78" height="80" viewBox="0 0 78 80" fill="none" xmlns="http://www.w3.org/2000/svg"><path d="M64.0156 34.7127H14.031c-1.7544 0-3.1816-1.4176-3.1816-3.1603v-9.4682c0-1.7427 1.4272-3.1609 3.1816-3.1609h49.9839c1.7538 0 3.1804 1.4182 3.1804 3.1609v9.4688c.0006 1.7421-1.426 3.1597-3.1797 3.1597ZM14.031 21.3455c-.4034 0-.7441.3385-.7441.7387v9.4688c0 .4069.3339.7382.7441.7382h49.9839c.4095 0 .7429-.3313.7429-.7382v-9.4688c0-.4008-.3407-.7387-.7429-.7387H14.031Z" fill="#fff"/><path d="M57.0447 67.1488H20.999c-3.3772 0-6.1249-2.7297-6.1249-6.0862v-27.561c0-.6685.546-1.2111 1.2188-1.2111.6727 0 1.2187.5426 1.2187 1.2111v27.561c0 2.0207 1.6545 3.6641 3.6874 3.6641h36.0457c2.0323 0 3.6861-1.6434 3.6861-3.6641v-27.561c0-.6685.546-1.2111 1.2188-1.2111.6727 0 1.2187.5426 1.2187 1.2111v27.561c0 3.3565-2.747 6.0862-6.1236 6.0862Z" fill="#fff"/><path d="M39.0225 67.1488c-.6727 0-1.2187-.5419-1.2187-1.211V33.5016c0-.6685.546-1.2111 1.2187-1.2111.6728 0 1.2188.5426 1.2188 1.2111v32.4356c0 .6697-.5454 1.2116-1.2188 1.2116ZM23.8113 21.3414c-3.8147-2.054-5.2382-6.8087-3.173-10.5999 2.0639-3.7895 6.8481-5.2046 10.6647-3.1543 5.814 3.1294 8.9535 11.86 9.0839 12.23l-2.2992.8036c-.0292-.0824-2.9621-8.2214-7.9444-10.9033-2.6355-1.4157-5.9371-.4384-7.3612 2.1769-1.4254 2.6177-.4431 5.8997 2.1913 7.3173l-1.1621 2.1297Z" fill="#fff"/><path d="m54.2313 21.3413-1.1603-2.1302c1.2767-.6873 2.2072-1.8263 2.6216-3.2076.4137-1.3818.2608-2.8411-.4309-4.1085-.6898-1.2686-1.8354-2.1927-3.2254-2.6038-1.3906-.4112-2.858-.2598-4.134.4263-4.9822 2.6813-7.9152 10.8203-7.9444 10.9027l-2.2992-.8036c.1304-.37 3.2693-9.1006 9.0834-12.2294 1.8476-.9943 3.9761-1.2135 5.9895-.6177 2.0152.5953 3.6745 1.9353 4.6745 3.7719 1.0012 1.836 1.2224 3.9499.6228 5.9525-.6002 2.0019-1.9488 3.6519-3.7976 4.6474ZM61.9496 50.9314H16.0929c-.6728 0-1.2188-.5425-1.2188-1.211 0-.6686.546-1.2111 1.2188-1.2111h45.8567c.6727 0 1.2187.5425 1.2187 1.2111 0 .6685-.5454 1.211-1.2187 1.211Z" fill="#fff"/></svg>