<svg width="20" height="21" viewBox="0 0 20 21" fill="none" xmlns="http://www.w3.org/2000/svg"><g clip-path="url(#a)" fill="currentColor"><path d="M17.9 9.7528H9.4v1.2041h8.5l-2.1 2.1072.9.9031 3.1-3.1107a.7539.7539 0 0 0 .15-.4515.754.754 0 0 0-.15-.4516l-3.1-3.1106-.9.903 2.1 2.007ZM8.1 19.7872v-6.2213a.6533.6533 0 0 0-.1886-.4129.649.649 0 0 0-.4114-.1892H3.1c.0052.3177.1332.621.3572.8457s.5262.3532.8428.3584h2.5v5.0172H3.1a1.7835 1.7835 0 0 1-.6982-.0955 1.7882 1.7882 0 0 1-.6074-.3585 1.7967 1.7967 0 0 1-.4224-.5661 1.8011 1.8011 0 0 1-.172-.6857V3.4311a1.7795 1.7795 0 0 1 .483-1.251A1.7674 1.7674 0 0 1 2.9 1.625h3.9v5.0172H4.4a1.218 1.218 0 0 0-.8428.3584c-.224.2247-.352.528-.3572.8458h4.4a.649.649 0 0 0 .4114-.1893.6532.6532 0 0 0 .1886-.4128V.9225a.8632.8632 0 0 0-.2628-.403A.8586.8586 0 0 0 7.5.3204H3.1a2.9907 2.9907 0 0 0-1.1559.1902 2.9985 2.9985 0 0 0-.9952.62 3.01 3.01 0 0 0-.6827.955A3.019 3.019 0 0 0 0 3.2305v13.9478c-.029.3991.0247.7998.1575 1.177.1328.3772.342.7228.6144 1.0149.2724.2922.602.5246.9683.6828a2.8824 2.8824 0 0 0 1.1598.236h4.6a.499.499 0 0 0 .555-.2834.503.503 0 0 0 .045-.2183Z"/></g><defs><clipPath id="a"><path fill="#fff" transform="translate(0 .3204)" d="M0 0h20v20.0688H0z"/></clipPath></defs></svg>
